<svg width="140" height="140" viewBox="0 0 140 140" fill="none" xmlns="http://www.w3.org/2000/svg">
<g filter="url(#filter0_d_34_256)">
<circle cx="70" cy="62" r="48" fill="#3E8847"/>
</g>
<path d="M69.4516 38.6986C67.6715 40.5744 65.6809 43.7805 64.4941 46.6611C64.2932 47.1301 64.1209 47.5512 64.0922 47.5895C64.073 47.6373 63.5467 47.1588 62.9342 46.5367C61.202 44.7854 59.843 43.7805 57.8715 42.8139C56.7518 42.2588 56.1871 42.1152 55.8521 42.2971C55.6033 42.4311 55.2588 43.4742 55.01 44.8428C54.876 45.5893 54.8377 46.2783 54.8377 47.9531C54.8377 50.0203 54.876 50.4318 55.2301 52.3746C55.2779 52.6234 55.2205 52.5947 53.718 51.7717C51.957 50.8146 51.6316 50.7381 51.2297 51.1687L51 51.4176V53.7719C51 57.2363 51.3828 59.9447 52.2633 62.6436C53.0098 64.9309 54.5506 67.0459 56.5508 68.5006L56.8379 68.7111L56.4359 69.0557C56.2158 69.2375 55.9191 69.6299 55.7756 69.917C55.5459 70.3955 55.5268 70.5295 55.565 71.1994C55.6033 71.7832 55.6607 72.0416 55.8617 72.3861C56.1967 72.9604 56.723 73.3814 57.3355 73.5729C57.6131 73.659 57.8619 73.8025 57.8811 73.8791C57.9098 73.9652 58.2734 75.908 58.6945 78.2049C59.4889 82.5115 59.5559 82.7891 59.9961 83.6504C60.8191 85.2678 62.1781 86.3684 63.9199 86.8182C64.5324 86.9809 65.0875 87 70.4756 87C75.8637 87 76.4188 86.9809 77.0313 86.8182C78.773 86.3684 80.132 85.2678 80.9551 83.6504C81.3953 82.7891 81.4623 82.5115 82.2566 78.2049C82.6777 75.908 83.0414 73.9557 83.0701 73.86C83.1084 73.726 83.2328 73.6973 83.7688 73.6973C84.9172 73.6973 85.7211 73.2666 86.2475 72.3766C86.4771 71.9746 86.5059 71.8311 86.5059 71.0654C86.5059 70.2998 86.4771 70.1562 86.2475 69.7543C85.9221 69.2088 85.3861 68.7494 84.898 68.6059C84.6971 68.5484 84.5535 68.4719 84.5631 68.4336C84.5822 68.3953 84.9076 68.0986 85.2904 67.7732C86.8121 66.4621 88.0563 64.5959 88.6879 62.6436C89.5684 59.9447 89.9512 57.2363 89.9512 53.7719V51.4176L89.7215 51.1687C89.3195 50.7381 88.9941 50.8146 87.2332 51.7717C85.7307 52.5947 85.6732 52.6234 85.7211 52.3746C86.0752 50.4318 86.1135 50.0203 86.1135 47.9531C86.1135 46.2783 86.0752 45.5893 85.9412 44.8428C85.6924 43.4742 85.3479 42.4311 85.099 42.2971C84.7641 42.1152 84.1994 42.2588 83.0797 42.8139C81.1082 43.7805 79.7396 44.7854 78.017 46.5367C77.4045 47.1588 76.8781 47.6373 76.859 47.599C76.8303 47.5512 76.658 47.1301 76.457 46.6611C75.2703 43.7613 73.184 40.4404 71.3752 38.5551C70.9063 38.067 70.7914 38 70.4756 38C70.1502 38 70.0449 38.067 69.4516 38.6986ZM69.71 53.2359V65.5912L69.1836 64.5768C68.552 63.3422 67.7863 62.1363 66.9824 61.1123C66.3986 60.3754 64.743 58.7006 63.8912 58.002L63.4893 57.667L63.6328 56.3271C64.1592 51.5037 65.5182 47.3502 67.8246 43.5029C68.351 42.6225 69.5855 40.8711 69.6717 40.8711C69.6908 40.8711 69.71 46.4314 69.71 53.2359ZM71.9398 41.7037C74.8205 45.6084 76.7059 50.7381 77.3184 56.3271L77.4619 57.667L77.06 58.002C76.2082 58.7006 74.5525 60.3754 73.9688 61.1123C73.1648 62.1363 72.3992 63.3422 71.7676 64.5768L71.2412 65.5912V53.2359C71.2412 46.4314 71.2604 40.8711 71.2795 40.8711C71.2986 40.8711 71.5953 41.2443 71.9398 41.7037ZM58.6467 45.0055C59.4889 45.5414 60.6373 46.441 61.4221 47.1875C62.3791 48.0967 63.3936 49.3121 63.3936 49.5418C63.3936 49.6471 63.3266 49.9342 63.2404 50.2021C63.1543 50.4605 62.9533 51.3027 62.7811 52.0684L62.4652 53.4561L60.2736 49.0729C59.0678 46.6707 58.0916 44.6992 58.1203 44.6992C58.1395 44.6992 58.3787 44.8332 58.6467 45.0055ZM80.6775 49.0729L78.4859 53.4561L78.1701 52.0684C77.9979 51.3027 77.7969 50.4605 77.7107 50.2021C77.6246 49.9342 77.5576 49.6471 77.5576 49.5418C77.5576 49.159 79.577 47.0152 80.8881 46.0104C81.5102 45.5223 82.7352 44.6992 82.8213 44.6992C82.85 44.6992 81.8834 46.6707 80.6775 49.0729ZM60.1109 52.2502C61.4699 55.0064 62.0537 56.2889 62.0346 56.4707C62.0059 56.7195 61.958 56.7004 59.709 55.3031C58.4457 54.5184 57.3643 53.8293 57.2973 53.7623C57.125 53.59 56.6273 51.5707 56.4455 50.2883C56.3307 49.4078 56.302 48.7666 56.3498 47.4746C56.4359 44.8428 56.3785 44.8811 57.3451 46.7281C57.7854 47.5799 59.0391 50.0682 60.1109 52.2502ZM84.6109 47.4746C84.6492 48.757 84.6205 49.4174 84.5057 50.2883C84.3238 51.5707 83.8262 53.59 83.6539 53.7623C83.5869 53.8293 82.5055 54.5184 81.2422 55.3031L78.9453 56.7291L78.9166 56.4516C78.8879 56.241 79.577 54.7863 81.6346 50.652C84.8119 44.3068 84.5152 44.6131 84.6109 47.4746ZM56.7422 55.3127C59.5367 56.9779 62.0537 58.5857 62.9629 59.2939C63.8529 59.9926 65.3459 61.5143 66.0063 62.3947C66.9824 63.7059 67.882 65.3137 68.6381 67.0937C69.2123 68.4719 69.2123 68.4336 68.8008 68.4336C68.1691 68.4336 65.7287 67.0363 64.0252 65.6773C60.4555 62.8541 56.8188 58.5953 54.0146 53.9441L53.7945 53.5709L54.2635 53.8389C54.5219 53.992 55.632 54.6523 56.7422 55.3127ZM87.0227 53.8102C86.9557 53.925 86.7643 54.2504 86.5824 54.5279C86.0465 55.3605 86.2283 56.0879 86.9652 56.0879C87.3576 56.0879 87.5777 55.8965 88.0371 55.1309C88.2285 54.8055 88.4104 54.5662 88.4391 54.5854C88.4582 54.6141 88.4295 55.2553 88.3721 56.0113C88.1328 58.9781 87.4916 61.8588 86.726 63.3996C85.7115 65.4285 84.0367 67.1033 81.9791 68.1369L81.3857 68.4336L78.6008 68.4145L75.8254 68.3857L76.8111 67.7062C78.5146 66.5291 80.2086 65.0457 81.8643 63.2561C83.3668 61.6291 84.6301 60.0787 84.7354 59.7342C84.8311 59.3896 84.6779 59.0643 84.343 58.8729C83.9314 58.6432 83.6443 58.7963 82.8979 59.7055C80.5818 62.4809 78.6582 64.3854 76.6484 65.8975C74.7631 67.3139 72.7725 68.4336 72.1504 68.4336C71.7389 68.4336 71.7389 68.4719 72.3131 67.0937C73.0691 65.3137 73.9688 63.7059 74.9449 62.3947C75.6053 61.5143 77.0982 59.9926 77.9883 59.2939C78.9262 58.5666 81.4719 56.9396 84.3525 55.2266C85.5393 54.5279 86.6398 53.8771 86.793 53.7814C87.1566 53.5613 87.1566 53.5613 87.0227 53.8102ZM53.2969 55.7242C56.4646 60.7678 60.733 65.4477 64.341 67.8498L65.1449 68.3857L62.36 68.4145L59.5654 68.4336L58.9721 68.1369C56.9145 67.1033 55.2396 65.4285 54.2252 63.3996C53.4596 61.8588 52.8088 58.9686 52.5791 56.0018C52.4643 54.5279 52.4738 54.5566 52.5217 54.5566C52.5408 54.5566 52.8949 55.083 53.2969 55.7242ZM84.4387 70.0988C85.2139 70.5104 85.2139 71.6205 84.4387 72.032C84.209 72.1469 82.8883 72.166 75.5479 72.166C69.174 72.166 66.8676 72.1947 66.7145 72.2809C66.2359 72.5297 66.1307 73.0178 66.4656 73.4484L66.657 73.6973H74.074C80.0555 73.6973 81.4814 73.7164 81.4814 73.8217C81.4814 74.0705 80.0363 81.7076 79.9023 82.167C79.7492 82.7125 79.2037 83.66 78.8209 84.0619C78.3711 84.5309 77.4619 85.0764 76.7537 85.3061C76.0838 85.5166 76.0072 85.5166 70.4756 85.5166C64.9439 85.5166 64.8674 85.5166 64.1975 85.3061C63.4893 85.0764 62.5801 84.5309 62.1303 84.0619C61.7475 83.66 61.202 82.7125 61.0488 82.167C60.9148 81.7076 59.4697 74.0705 59.4697 73.8217C59.4697 73.726 59.7855 73.6973 60.8287 73.6973C62.092 73.6973 62.1973 73.6781 62.4078 73.4867C62.6854 73.2283 62.6949 72.7498 62.4461 72.4436C62.2643 72.2139 62.2355 72.2139 60.0248 72.166C58.5414 72.1373 57.7279 72.0799 57.5939 72.0033C56.8857 71.6014 56.9145 70.5008 57.6418 70.1084C58.0246 69.8979 84.0367 69.8979 84.4387 70.0988Z" fill="white"/>
<defs>
<filter id="filter0_d_34_256" x="0" y="0" width="140" height="140" filterUnits="userSpaceOnUse" color-interpolation-filters="sRGB">
<feFlood flood-opacity="0" result="BackgroundImageFix"/>
<feColorMatrix in="SourceAlpha" type="matrix" values="0 0 0 0 0 0 0 0 0 0 0 0 0 0 0 0 0 0 127 0" result="hardAlpha"/>
<feOffset dy="8"/>
<feGaussianBlur stdDeviation="11"/>
<feComposite in2="hardAlpha" operator="out"/>
<feColorMatrix type="matrix" values="0 0 0 0 0.00784314 0 0 0 0 0.0862745 0 0 0 0 0.0196078 0 0 0 0.18 0"/>
<feBlend mode="normal" in2="BackgroundImageFix" result="effect1_dropShadow_34_256"/>
<feBlend mode="normal" in="SourceGraphic" in2="effect1_dropShadow_34_256" result="shape"/>
</filter>
</defs>
</svg>
