<svg width="140" height="140" viewBox="0 0 140 140" fill="none" xmlns="http://www.w3.org/2000/svg">
<g filter="url(#filter0_d_34_265)">
<circle cx="70" cy="62" r="48" fill="#3E8847"/>
</g>
<path d="M56.7655 38.1726C55.0908 38.6606 53.732 39.7706 52.976 41.2539L52.7081 41.7993L52.2201 41.6175C51.6076 41.3879 51.2536 41.3879 50.9569 41.6271C50.5933 41.9142 50.4593 42.3065 50.5933 42.718C50.7272 43.139 50.8612 43.2443 51.6363 43.5505L52.2679 43.8089L52.2966 45.6079L52.3157 47.4165L51.4832 47.6462C50.4689 47.9333 50.2105 48.1534 50.2105 48.7754C50.2105 49.1199 50.2679 49.2538 50.4976 49.4931C50.7751 49.761 50.8325 49.7802 51.2918 49.7323C51.5693 49.7036 51.9043 49.6462 52.0574 49.6079L52.3157 49.5505V51.2251V52.8997L51.7416 52.7562C51.0909 52.584 50.7655 52.6414 50.4402 52.9667C50.2679 53.1486 50.2105 53.3017 50.2105 53.6366C50.2105 54.2873 50.5167 54.5552 51.5311 54.7849L52.3157 54.9572V56.5935V58.2394L51.4545 58.5552C50.4402 58.9284 50.2105 59.1581 50.2105 59.7801C50.2105 60.0959 50.2679 60.2586 50.4402 60.4308C50.7942 60.7849 51.1292 60.8231 51.7607 60.5935L52.3157 60.3925V62.5839V64.7657L51.7703 64.5743C51.311 64.4212 51.1579 64.4021 50.8708 64.4882C50.4402 64.6222 50.2105 64.9475 50.2105 65.4356C50.2105 66.0097 50.4689 66.2585 51.4545 66.6126L52.3157 66.9188V68.5264V70.1437H49.4067H46.5072L46.2488 70.3925L46 70.6508V73.78C46 76.1053 46.0383 77.1197 46.1435 77.7225C46.9378 82.3158 50.6603 86.0383 55.2727 86.8421C56.4688 87.0526 84.5261 87.0526 85.7222 86.8421C90.3346 86.0383 94.0571 82.3158 94.8513 77.7225C94.9566 77.1197 94.9949 76.1053 94.9949 73.78V70.6508L94.7461 70.3925L94.4973 70.1437L90.9662 70.1245L87.4351 70.0958L88.4208 68.9953C88.9567 68.3829 89.5308 67.7322 89.6935 67.5312L89.9901 67.1772L90.6409 67.426C91.6265 67.7896 92.2198 67.5791 92.3729 66.8135C92.4877 66.2202 92.1815 65.7992 91.4351 65.56C91.2341 65.493 91.0715 65.4164 91.0715 65.3973C91.0715 65.3781 91.1767 65.0911 91.3107 64.7561C91.5212 64.249 91.7318 63.5121 91.971 62.4595C92.0284 62.2011 92.0475 62.2011 92.7557 62.2011C93.4255 62.2011 93.5021 62.182 93.7604 61.9236C93.9805 61.6939 94.038 61.56 94.038 61.2251C94.038 60.5265 93.5978 60.1916 92.66 60.1916H92.1528L91.9997 59.1007C91.9231 58.4978 91.703 57.5696 91.5308 57.0433C91.349 56.5074 91.2533 56.0768 91.3011 56.0768C91.3585 56.0768 91.6265 55.9715 91.904 55.8471C92.727 55.4548 92.9279 54.7083 92.3442 54.1246C92.0284 53.7993 91.5499 53.7993 90.7844 54.1055L90.2198 54.3351L89.8179 53.7993C89.5978 53.493 89.1098 52.9572 88.7461 52.6031L88.0763 51.9524L88.4303 51.5888C88.8514 51.1581 88.9567 50.6892 88.7366 50.2586C88.5452 49.8854 88.3155 49.761 87.8179 49.761C87.4638 49.761 87.3586 49.8184 86.861 50.2969L86.306 50.8232L85.7414 50.5457C84.4112 49.8663 82.7844 49.5218 80.9758 49.5313C79.2342 49.5409 77.8945 49.8184 76.44 50.4883L75.7319 50.8136L75.1768 50.2873C74.6792 49.8184 74.5835 49.761 74.2103 49.761C73.6936 49.761 73.4161 49.9428 73.2725 50.3926C73.1194 50.8423 73.2056 51.1199 73.6266 51.5888L73.9711 51.9715L73.1577 52.8041C72.7175 53.2634 72.2295 53.7897 72.086 53.9907L71.8276 54.3351L71.263 54.1055C70.4974 53.7993 70.0955 53.8088 69.7319 54.1342C69.4927 54.3543 69.4353 54.4787 69.4257 54.804C69.4161 55.3782 69.6266 55.6366 70.2869 55.8949L70.8419 56.115L70.5836 56.8806C70.2869 57.7418 70.019 58.9667 70.019 59.4452C70.019 60.1246 69.9711 60.1629 69.2343 60.2107C68.6219 60.2394 68.5357 60.2777 68.2869 60.5552C67.8946 60.9858 67.9042 61.5313 68.2869 61.9236C68.5549 62.182 68.6123 62.2011 69.33 62.2011H70.086L70.1529 62.6987C70.1912 62.9667 70.373 63.6174 70.5549 64.1533C70.7367 64.6891 70.9089 65.1867 70.9376 65.2729C70.9759 65.3973 70.8994 65.4643 70.6506 65.5504C69.5309 65.914 69.3108 67.0815 70.2678 67.5312C70.5931 67.6939 70.6314 67.6843 71.2917 67.4642C71.6745 67.3303 72.0094 67.225 72.0381 67.225C72.086 67.225 73.6075 68.9283 74.4974 69.9714C74.6314 70.1341 74.3826 70.1437 69.4161 70.1437H64.1817V68.5264V66.9188L65.0429 66.6126C66.0286 66.2585 66.2869 66.0097 66.2869 65.4356C66.2869 64.9475 66.0573 64.6222 65.6267 64.4882C65.3396 64.4021 65.1865 64.4212 64.7271 64.5743L64.1817 64.7657V62.5935V60.4117L64.7367 60.603C65.3683 60.8231 65.7032 60.7849 66.0573 60.4308C66.2295 60.2586 66.2869 60.0959 66.2869 59.7801C66.2869 59.1581 66.0573 58.9284 65.0429 58.5552L64.1817 58.2299V56.5935V54.9572L64.976 54.7849C65.9807 54.5552 66.2869 54.2873 66.2869 53.6366C66.2869 53.3017 66.2295 53.1486 66.0573 52.9667C65.7319 52.6414 65.4066 52.584 64.7559 52.7562L64.1817 52.8997V51.2251V49.5505L64.4496 49.6079C64.5932 49.6462 64.9281 49.7036 65.2056 49.7323C65.6649 49.7802 65.7224 49.761 65.9999 49.4931C66.2295 49.2538 66.2869 49.1199 66.2869 48.7754C66.2869 48.1534 66.0286 47.9333 65.0142 47.6462L64.1817 47.4165L64.2008 45.6079L64.2295 43.7993L64.8898 43.5505C65.6841 43.2443 65.952 42.9477 65.9425 42.3735C65.9329 42.0481 65.8659 41.9142 65.6267 41.7037C65.2726 41.3879 64.9472 41.3592 64.2774 41.6175L63.7894 41.7993L63.5214 41.2539C62.7559 39.7419 61.2918 38.5745 59.6171 38.1439C58.8516 37.9429 57.5023 37.9525 56.7655 38.1726ZM59.8277 40.3735C61.1099 41.0051 61.9903 42.23 62.1721 43.6367C62.22 44.0673 62.2678 49.5409 62.2678 57.2442V70.1437H58.2487H54.2296V57.2442C54.2296 49.6845 54.2775 44.0673 54.3253 43.6558C54.488 42.4309 55.11 41.3974 56.0765 40.7276C56.8899 40.163 57.4832 39.9907 58.4114 40.029C59.0525 40.0577 59.2918 40.1151 59.8277 40.3735ZM80.1433 57.1102C80.1529 57.1198 80.306 57.2155 80.4782 57.3208C80.8514 57.5504 81.129 57.56 81.5117 57.359C82.0285 57.1007 82.0763 56.8232 82.0763 54.1629C82.0763 52.8519 82.1146 51.7706 82.1624 51.7706C82.2868 51.7706 82.9471 52.2299 83.3108 52.5648C84.0954 53.3112 84.9567 54.938 85.3682 56.4595C85.7222 57.7992 85.8371 58.8997 85.7796 60.4308C85.6839 62.9954 85.3107 64.1533 83.483 67.5312L82.1242 70.0384L82.0763 67.3494L82.0285 64.67L81.7127 64.3925C81.3108 64.0289 80.7749 64.0097 80.3825 64.3446L80.1146 64.5743L80.0668 67.3686L80.0189 70.1532L78.7558 67.8279C77.1768 64.9092 77.1673 64.8805 76.8706 63.9619C76.4974 62.804 76.3443 61.9045 76.2773 60.4786C76.1146 56.8806 77.4065 53.3974 79.416 52.0576L80.0189 51.6557L80.0668 54.3734C80.0955 55.8567 80.1337 57.0911 80.1433 57.1102ZM75.4256 53.9907C74.641 55.694 74.2869 57.493 74.2869 59.8566C74.2869 61.6652 74.3826 62.5073 74.7558 63.9714C75.0716 65.1676 75.4065 65.9427 76.507 67.9618C77.0237 68.9283 77.5022 69.8087 77.5692 69.9236C77.6649 70.1054 77.6553 70.1437 77.5405 70.1437C77.3682 70.1437 74.1816 66.5743 73.5788 65.7131C72.9855 64.8614 72.5357 63.8758 72.2486 62.804C71.9137 61.5313 71.8946 59.7801 72.2008 58.5361C72.6505 56.7275 73.5022 55.2634 74.8611 53.9811C75.3108 53.5505 75.7032 53.2155 75.7223 53.2347C75.7414 53.2538 75.617 53.5983 75.4256 53.9907ZM87.3777 54.1342C90.1432 56.871 90.8801 60.9667 89.215 64.4499C88.7174 65.493 88.3155 66.0384 86.6696 67.8949C84.7844 70.0288 84.66 70.1532 84.5165 70.1245C84.4304 70.1054 84.5356 69.8374 84.8706 69.2346C87.1672 65.1198 87.6744 63.5982 87.7892 60.5743C87.8849 58.048 87.4925 55.8854 86.5643 53.7993L86.2868 53.1964L86.5548 53.3782C86.6983 53.4835 87.0715 53.8184 87.3777 54.1342ZM93.0523 74.4211C92.9949 76.9953 92.9088 77.579 92.4112 78.9666C91.9614 80.201 91.2724 81.2441 90.2198 82.2967C88.6026 83.8852 86.6983 84.7751 84.4591 84.9761C83.1194 85.0909 57.9329 85.1005 56.6219 84.9857C54.2392 84.7656 52.3349 83.8852 50.689 82.2106C49.7225 81.2441 49.0048 80.134 48.5837 78.9666C48.0861 77.579 48 76.9953 47.9426 74.4211L47.8852 72.0575H70.4974H93.1097L93.0523 74.4211Z" fill="white"/>
<path d="M80.3442 60.0863C80.1241 60.3064 80.0667 60.4499 80.0667 60.7657C80.0667 60.9858 80.1146 61.2442 80.1624 61.3495C80.2868 61.56 80.7461 61.8184 81.0236 61.8184C81.3777 61.8184 81.7988 61.5313 81.9423 61.1964C82.3633 60.1916 81.1098 59.3208 80.3442 60.0863Z" fill="white"/>
<defs>
<filter id="filter0_d_34_265" x="0" y="0" width="140" height="140" filterUnits="userSpaceOnUse" color-interpolation-filters="sRGB">
<feFlood flood-opacity="0" result="BackgroundImageFix"/>
<feColorMatrix in="SourceAlpha" type="matrix" values="0 0 0 0 0 0 0 0 0 0 0 0 0 0 0 0 0 0 127 0" result="hardAlpha"/>
<feOffset dy="8"/>
<feGaussianBlur stdDeviation="11"/>
<feComposite in2="hardAlpha" operator="out"/>
<feColorMatrix type="matrix" values="0 0 0 0 0.00784314 0 0 0 0 0.0862745 0 0 0 0 0.0196078 0 0 0 0.18 0"/>
<feBlend mode="normal" in2="BackgroundImageFix" result="effect1_dropShadow_34_265"/>
<feBlend mode="normal" in="SourceGraphic" in2="effect1_dropShadow_34_265" result="shape"/>
</filter>
</defs>
</svg>
