<svg width="136" height="136" viewBox="0 0 136 136" fill="none" xmlns="http://www.w3.org/2000/svg">
<g filter="url(#filter0_d_34_275)">
<circle cx="68" cy="60" r="48" fill="white"/>
</g>
<path d="M50.8351 36.0404C50.3116 36.1787 50.2622 36.4355 50.1338 39.4777C49.9758 43.2212 50.1536 45.7794 50.7758 48.6537C51.2401 50.8267 52.0895 53.4047 52.9389 55.232C53.176 55.7456 53.3439 56.1605 53.3044 56.1407C53.2649 56.1111 51.408 55.311 49.1658 54.3529C46.4298 53.1874 44.9877 52.6145 44.7507 52.6145C44.2766 52.6145 44 52.901 44 53.3948C44 53.7306 44.2568 54.106 46.7064 57.3655C48.1978 59.3409 49.7387 61.3164 50.1338 61.751C51.4771 63.2227 53.3439 64.8525 54.6477 65.7019L55.0626 65.9785V66.7983V67.628H53.6797C52.4253 67.628 52.2772 67.6477 52.0994 67.8255C51.9117 68.0132 51.9018 68.1515 51.9018 72.7839C51.9018 78.2955 51.9216 78.4733 52.7908 80.2215C53.8575 82.3748 55.6256 83.8761 58.0257 84.6762L58.8653 84.9626L68.15 84.9923C76.3778 85.012 77.5235 85.0021 78.2248 84.8639C80.8719 84.3305 83.1832 82.4736 84.3487 79.9351C84.9512 78.651 85.0303 78.1868 85.0895 75.599L85.1389 73.2482L88.2996 77.772C90.038 80.261 91.5394 82.3748 91.6382 82.4637C91.7369 82.5723 91.9542 82.6415 92.2012 82.6415C92.7148 82.6415 92.9914 82.3748 92.9914 81.8908C92.9914 81.4562 86.8576 66.6501 86.2452 65.6031C85.2377 63.8746 83.282 62.5412 81.2571 62.1856L80.5361 62.0671L80.8127 61.83C81.2275 61.4843 82.393 60.9312 83.0647 60.7633C83.8154 60.5756 85.2772 60.5756 86.0279 60.7633C87.3712 61.0991 87.9539 61.5041 89.9393 63.4499C91.7271 65.2081 91.7962 65.2574 92.1913 65.2574C93.0802 65.2574 93.1889 64.6944 92.6456 63.0252C91.4999 59.5187 89.1293 57.1877 85.6229 56.1012C84.7932 55.8444 84.6352 55.8345 82.8177 55.8345C80.9904 55.8345 80.8423 55.8444 80.0027 56.1111C79.0841 56.3876 77.7902 56.9704 77.1976 57.3655L76.8617 57.5927L77.2371 56.9111C79.015 53.701 81.3263 50.0958 83.1931 47.6265C84.2697 46.1943 85.3562 45.5918 86.8674 45.5918C87.8848 45.5918 88.4083 45.7992 90.2751 46.9252C91.9937 47.9524 92.3888 48.0808 92.7938 47.6759C93.1 47.3697 93.0407 46.8857 92.537 45.7202C91.9542 44.3373 91.4505 43.5867 90.5813 42.7669C89.159 41.4235 87.786 40.8605 85.7612 40.7815C83.7956 40.7124 82.3733 41.147 80.862 42.2927C79.7657 43.1224 77.6025 45.6411 76.2 47.7253C74.7184 49.9279 74.0467 51.2317 72.5059 54.8863C71.9824 56.1111 71.5576 57.0297 71.5576 56.9408C71.5576 56.6148 72.5454 52.8318 72.9997 51.4786C74.6097 46.5894 76.6938 42.4113 79.5977 38.2431C80.2101 37.364 80.3484 37.0973 80.3484 36.7911C80.3484 36.159 80.1212 36.0207 79.0249 36.0207C75.5283 36.0207 71.6169 37.8578 69.2661 40.6136C66.8067 43.4978 64.6732 48.5945 64.0015 53.1479L63.8731 54.0467L63.8632 52.9602C63.8534 51.7058 63.8929 51.4292 64.9399 45.7696C65.3745 43.4385 65.73 41.3544 65.73 41.147C65.73 40.6235 65.4633 40.3667 64.9201 40.3667C64.5349 40.3667 64.4559 40.4161 63.9126 40.9791C61.6803 43.3496 60.0506 46.4807 59.3493 49.7896C59.0036 51.3799 58.9048 54.6591 59.1518 56.2592C59.2407 56.8222 59.2999 57.3062 59.2802 57.3161C59.2703 57.326 57.6208 52.6935 55.6157 47.0042C53.6106 41.3149 51.9117 36.5442 51.8426 36.4059C51.6747 36.0701 51.2697 35.9219 50.8351 36.0404ZM77.7211 37.9171C77.6816 37.9863 77.484 38.2924 77.2865 38.5888C73.3849 44.4658 70.5008 52.0318 69.4439 59.1829C69.1673 61.0003 68.6932 66.2254 68.6932 67.4107C68.6932 67.5885 68.6438 67.6379 68.4858 67.6082C68.308 67.5885 68.0413 66.986 66.7968 63.8746L65.3152 60.1706L65.3745 57.7013C65.4831 53.6714 65.8979 51.2514 66.9548 48.3475C68.0808 45.2362 69.5229 42.7669 71.1527 41.1569C72.5355 39.7839 74.0467 38.8456 75.8543 38.2628C77.1877 37.8183 77.8495 37.6998 77.7211 37.9171ZM54.865 49.997C56.3466 54.1751 57.6405 57.8396 57.7393 58.126C57.8578 58.4619 57.8776 58.6199 57.7986 58.5705C57.7294 58.531 57.3541 58.2841 56.9491 58.0273C56.554 57.7705 56.1886 57.5532 56.1491 57.5532C56.0404 57.5532 55.6157 56.8124 54.9045 55.3802C52.9389 51.4194 51.9315 47.3104 51.7537 42.5891L51.7043 41.1075L51.9413 41.7495C52.0697 42.1051 53.3834 45.8091 54.865 49.997ZM86.8971 42.5891C87.9934 42.8755 89.1886 43.6262 89.88 44.4658L90.2356 44.9004L89.8109 44.6633C88.9911 44.1892 87.9342 43.9225 86.8872 43.9225C85.7809 43.9225 85.0303 44.0904 84.1117 44.5448C82.8968 45.1374 81.9881 46.1943 79.4891 49.918C76.5555 54.3035 74.5208 58.0767 71.7453 64.3389C71.0144 65.9785 70.4119 67.302 70.402 67.2922C70.3822 67.2823 70.4415 66.4526 70.5106 65.4451L70.6489 63.6277L72.7429 58.689C75.5579 52.0219 76.1407 50.8267 77.7606 48.4661C79.1631 46.4215 81.267 44.0509 82.3041 43.3595C83.203 42.757 84.2598 42.4409 85.3858 42.4409C85.9093 42.4409 86.581 42.51 86.8971 42.5891ZM62.9249 47.4092C62.1742 51.4391 62.1446 51.7552 62.2038 53.9479C62.2927 56.9309 62.4508 57.5136 64.6732 63.0844C65.5918 65.3957 66.3721 67.3613 66.3918 67.4502C66.4313 67.5885 66.3819 67.628 66.1548 67.628C65.8881 67.628 65.8189 67.5588 65.5325 67.0156C64.9497 65.9192 63.6953 64.1413 62.6878 62.9758L61.71 61.83L61.226 58.7779C60.7519 55.7752 60.742 55.6863 60.742 53.5035C60.7519 51.0638 60.8605 50.2637 61.4828 48.3574C61.9372 46.9845 63.2706 44.2978 63.4286 44.446C63.4484 44.4756 63.2212 45.8091 62.9249 47.4092ZM50.8153 56.9111C52.4154 57.5927 54.1045 58.3631 54.5687 58.61C56.3861 59.5879 58.2628 60.9411 59.853 62.4325C60.4753 63.0153 60.5148 63.0647 60.2185 62.9758C60.0308 62.9066 59.4777 62.877 58.9345 62.9066C58.1146 62.9363 57.8776 62.9857 57.3343 63.2425C56.9788 63.4104 56.475 63.7363 56.2182 63.9734L55.7441 64.3981L55.428 64.1709C53.7094 62.9264 52.0994 61.4547 50.9635 60.1015C50.3116 59.3311 47.7336 55.953 47.5163 55.6073C47.4274 55.4493 47.2595 55.3802 50.8153 56.9111ZM84.7636 57.6618C86.2254 57.9779 87.6774 58.7779 88.8725 59.904C89.2972 60.3188 89.3565 60.5163 88.9713 60.2398C88.3787 59.8249 87.2131 59.3113 86.3933 59.1236C85.1488 58.8174 83.203 58.8866 82.0769 59.2718C80.625 59.7657 79.3706 60.6151 78.452 61.7411C78.1458 62.1165 77.3457 63.4499 76.4963 65.0006L75.0641 67.628H73.6121H72.1602L72.2984 67.302C72.3676 67.1341 72.9503 65.8303 73.5825 64.4179C74.2146 63.0054 74.8073 61.6917 74.8863 61.5041C75.074 61.0497 77.6124 59.0743 78.8372 58.4224C80.6744 57.4445 82.6202 57.1877 84.7636 57.6618ZM81.7115 64.0129C83.0054 64.4771 84.2697 65.4945 84.8327 66.5316C85.129 67.0946 88.27 74.552 88.2206 74.6014C88.2009 74.6211 87.2428 73.2679 86.0772 71.6085C83.7462 68.2799 83.4696 67.9144 82.5807 67.1638C81.6028 66.3341 79.5187 65.3562 78.7187 65.3562C78.3335 65.3562 78.3433 65.1982 78.7285 64.4673C79.094 63.7857 79.1039 63.7857 79.5484 63.7561C80.2003 63.7166 81.2176 63.8351 81.7115 64.0129ZM60.2481 64.8031C60.5247 64.9315 60.821 65.129 60.9198 65.2377C61.1075 65.4352 61.0976 65.4649 60.5642 66.7588C59.5765 69.1195 58.8653 71.7369 58.4702 74.3939C58.3813 74.9866 58.3023 75.4903 58.2826 75.5101C58.2431 75.5397 57.4924 72.8531 57.3343 72.1222C57.0677 70.8875 56.8306 69.0306 56.7713 67.6774C56.7022 65.9686 56.7417 65.8303 57.4726 65.1883C58.006 64.7241 58.3715 64.5858 59.1616 64.5759C59.5962 64.566 59.8926 64.6352 60.2481 64.8031ZM63.8534 67.549C63.8534 67.5984 63.4484 67.628 62.9545 67.628C62.1446 67.628 62.0557 67.6082 62.1248 67.4601C62.1545 67.3613 62.3322 66.9662 62.5002 66.5711L62.8162 65.8698L63.3299 66.6699C63.6163 67.1144 63.8534 67.5095 63.8534 67.549ZM78.7187 67.0749C79.0446 67.1539 79.5089 67.3119 79.7558 67.4206L80.2003 67.6181H78.6001L77 67.628L77.1976 67.2823C77.3754 66.986 77.4544 66.9366 77.7606 66.9366C77.968 66.9366 78.3927 67.0057 78.7187 67.0749ZM55.2008 69.5244C55.2305 69.7022 55.3095 70.206 55.3688 70.6406C55.7441 73.3667 56.8701 77.0707 58.0356 79.3918C58.4307 80.1919 58.5295 80.2709 59.0727 80.2709C59.4876 80.2709 59.8037 79.9845 59.8037 79.5993C59.8135 79.4511 59.853 78.5128 59.9024 77.5053C60.0308 74.8483 60.3568 72.8531 61.0581 70.4628L61.4334 69.2084H71.8638H82.2942L82.9066 70.0677L83.5289 70.9369L83.4795 74.0976C83.44 76.9028 83.4104 77.3472 83.2326 78.0288C82.8968 79.2634 82.3041 80.3006 81.3855 81.2191C80.1311 82.4834 78.7483 83.1551 77 83.3428C75.8938 83.4514 61.0976 83.4514 59.9913 83.3428C58.2727 83.1551 56.8701 82.4933 55.6453 81.2685C54.4107 80.024 53.739 78.6115 53.5711 76.8633C53.5217 76.3793 53.4822 74.4532 53.4822 72.5864V69.2084H54.3218H55.1515L55.2008 69.5244Z" fill="#3E8847"/>
<defs>
<filter id="filter0_d_34_275" x="0" y="0" width="136" height="136" filterUnits="userSpaceOnUse" color-interpolation-filters="sRGB">
<feFlood flood-opacity="0" result="BackgroundImageFix"/>
<feColorMatrix in="SourceAlpha" type="matrix" values="0 0 0 0 0 0 0 0 0 0 0 0 0 0 0 0 0 0 127 0" result="hardAlpha"/>
<feOffset dy="8"/>
<feGaussianBlur stdDeviation="10"/>
<feComposite in2="hardAlpha" operator="out"/>
<feColorMatrix type="matrix" values="0 0 0 0 0.311927 0 0 0 0 0.470833 0 0 0 0 0.333115 0 0 0 0.44 0"/>
<feBlend mode="normal" in2="BackgroundImageFix" result="effect1_dropShadow_34_275"/>
<feBlend mode="normal" in="SourceGraphic" in2="effect1_dropShadow_34_275" result="shape"/>
</filter>
</defs>
</svg>
