<svg width="123" height="123" viewBox="0 0 123 123" fill="none" xmlns="http://www.w3.org/2000/svg">
<g filter="url(#filter0_d_34_301)">
<circle cx="39.5" cy="39.5" r="39.5" transform="matrix(-1 0 0 1 101 17)" fill="white"/>
</g>
<path d="M69.1215 54.6386C69.0285 54.5431 68.6773 54.1349 68.3502 53.7992C66.4326 51.6876 61.4302 48.2313 58.812 47.1764C58.4143 47.0068 57.409 46.648 56.8719 46.625C56.3572 46.625 55.8666 46.7435 55.3984 46.9838C54.8148 47.3195 54.3466 47.8479 54.0901 48.4716C53.925 48.9045 53.6684 50.1998 53.6684 50.2228C53.4119 51.6399 53.2708 53.9424 53.2708 56.4868C53.2708 58.9111 53.4119 61.1199 53.6219 62.5583C53.646 62.5814 53.9025 64.191 54.1831 64.7423C54.6978 65.7496 55.7031 66.375 56.7789 66.375H56.8719C57.5726 66.3503 59.046 65.7249 59.046 65.7019C61.5232 64.6452 66.4102 61.3585 68.3743 59.1745C68.3743 59.1745 68.9275 58.6133 69.168 58.2627C69.5431 57.7591 69.7291 57.1353 69.7291 56.5115C69.7291 55.8153 69.5191 55.1669 69.1215 54.6386Z" fill="#3E8847"/>
<defs>
<filter id="filter0_d_34_301" x="0.604166" y="0.541666" width="121.792" height="121.792" filterUnits="userSpaceOnUse" color-interpolation-filters="sRGB">
<feFlood flood-opacity="0" result="BackgroundImageFix"/>
<feColorMatrix in="SourceAlpha" type="matrix" values="0 0 0 0 0 0 0 0 0 0 0 0 0 0 0 0 0 0 127 0" result="hardAlpha"/>
<feOffset dy="4.9375"/>
<feGaussianBlur stdDeviation="10.6979"/>
<feComposite in2="hardAlpha" operator="out"/>
<feColorMatrix type="matrix" values="0 0 0 0 0 0 0 0 0 0 0 0 0 0 0 0 0 0 0.12 0"/>
<feBlend mode="normal" in2="BackgroundImageFix" result="effect1_dropShadow_34_301"/>
<feBlend mode="normal" in="SourceGraphic" in2="effect1_dropShadow_34_301" result="shape"/>
</filter>
</defs>
</svg>
