<svg width="36" height="36" viewBox="0 0 36 36" fill="none" xmlns="http://www.w3.org/2000/svg">
<rect width="36" height="36" fill="#81AF75"/>
<g clip-path="url(#clip0_34_375)">
<path d="M14.2918 26.125C21.8371 26.125 25.9652 19.8723 25.9652 14.4516C25.9652 14.2758 25.9613 14.0961 25.9535 13.9203C26.7566 13.3396 27.4496 12.6202 28 11.7961C27.2521 12.1288 26.458 12.3462 25.6449 12.4406C26.5011 11.9274 27.1421 11.1212 27.4492 10.1715C26.6438 10.6488 25.763 10.9855 24.8445 11.1672C24.2257 10.5096 23.4075 10.0743 22.5164 9.92838C21.6253 9.78249 20.711 9.93421 19.9148 10.3601C19.1186 10.786 18.4848 11.4623 18.1115 12.2844C17.7382 13.1066 17.6462 14.0288 17.8496 14.9086C16.2187 14.8267 14.6233 14.4031 13.1667 13.6651C11.71 12.9271 10.4247 11.8912 9.39414 10.6246C8.87033 11.5277 8.71005 12.5964 8.94586 13.6134C9.18167 14.6304 9.79589 15.5195 10.6637 16.1C10.0122 16.0793 9.37498 15.9039 8.80469 15.5883V15.6391C8.8041 16.5868 9.13175 17.5055 9.73192 18.239C10.3321 18.9725 11.1678 19.4755 12.0969 19.6625C11.4934 19.8276 10.86 19.8517 10.2457 19.7328C10.5079 20.5479 11.018 21.2607 11.7048 21.7719C12.3916 22.2831 13.2209 22.5672 14.077 22.5844C12.6237 23.7259 10.8285 24.3451 8.98047 24.3422C8.65274 24.3417 8.32533 24.3216 8 24.282C9.87738 25.4865 12.0613 26.1262 14.2918 26.125Z" fill="#E8E4DA"/>
</g>
<defs>
<clipPath id="clip0_34_375">
<rect width="20" height="20" fill="white" transform="translate(8 8)"/>
</clipPath>
</defs>
</svg>
