<svg width="105" height="105" viewBox="0 0 105 105" fill="none" xmlns="http://www.w3.org/2000/svg">
<circle cx="52.5" cy="52.5" r="52.5" fill="#3E8847"/>
<path d="M32.9132 28.662C31.2534 29.1256 29.8718 30.3867 29.2876 31.9816C29.0187 32.6956 28.9167 34.2256 29.0929 35.0045C29.4267 36.5623 30.5023 37.8976 32.0416 38.6672C32.7463 39.0196 32.8947 39.1309 32.8483 39.2607C32.6907 39.613 32.6907 40.3827 32.839 40.8278C33.0616 41.4861 33.5438 41.9312 34.5545 42.3948C35.5374 42.8585 35.7321 42.8863 36.0845 42.6081C36.2699 42.4598 36.3256 42.3392 36.3256 42.0703C36.3256 41.6345 36.205 41.5232 35.2778 41.0781C34.5267 40.7258 34.1928 40.4105 34.1928 40.0767C34.1928 39.8819 38.5696 32.5843 38.7087 32.538C38.7736 32.5101 49.1034 37.2856 49.1961 37.3783C49.2054 37.3876 48.6119 39.205 47.8701 41.4212C47.0077 43.999 46.4514 45.5105 46.3216 45.6496C46.1917 45.7887 46.0156 45.8628 45.8301 45.8628C45.6446 45.8628 44.2908 45.2787 42.1581 44.2865C40.3036 43.4241 38.6623 42.7101 38.5232 42.7101C37.9576 42.7101 37.6052 43.4705 37.9761 43.897C38.0596 43.999 39.6823 44.8058 41.5647 45.6867C44.7174 47.1517 45.0419 47.2908 45.6168 47.3279C46.9057 47.4114 47.6568 46.8272 48.139 45.325L48.3059 44.8428H48.9921C49.3723 44.8428 51.1897 44.7779 53.0165 44.6945L56.3546 44.5554L57.7919 45.2972C59.0159 45.9278 59.3126 46.0483 59.6835 46.0483C60.175 46.0483 60.6015 45.8165 60.9353 45.3714C61.1208 45.121 61.1301 44.9819 61.1579 42.4134C61.1857 39.8449 61.1764 39.7058 60.991 39.3256C60.7777 38.8805 60.4717 38.6394 59.9803 38.5281C59.5074 38.4169 59.1457 38.5467 57.6899 39.307L56.401 39.9839L53.2483 39.8541C51.5143 39.7799 50.0863 39.715 50.077 39.7058C50.0677 39.6965 50.383 38.6858 50.791 37.4618C51.199 36.2378 51.5328 35.0879 51.5328 34.8839C51.5328 34.2905 51.3288 33.8083 50.8837 33.3354C50.4943 32.9181 50.1141 32.7234 45.8301 30.739C41.6017 28.7732 41.1567 28.5878 40.6837 28.5785C39.979 28.5692 39.3856 28.8196 38.9312 29.311C38.7179 29.5429 38.551 29.7654 38.551 29.8118C38.551 29.8581 38.0781 29.682 37.5125 29.413C36.9376 29.1349 36.2607 28.8381 36.001 28.7547C35.3705 28.5229 33.5901 28.4765 32.9132 28.662ZM35.4261 30.1456C35.6394 30.2198 36.2514 30.4794 36.7707 30.7205L37.7165 31.1656L37.327 31.8147C37.123 32.167 36.9376 32.473 36.9283 32.4916C36.919 32.5009 36.4554 32.3061 35.899 32.0465C34.8141 31.555 34.2763 31.4716 33.5345 31.6849C32.6814 31.9445 32.0601 32.844 32.0601 33.8361C32.0601 34.8654 32.5238 35.4959 33.7292 36.0801C34.1372 36.2749 34.471 36.4603 34.471 36.4974C34.471 36.5252 34.2856 36.8219 34.0723 37.165L33.6736 37.7956L32.9132 37.4247C31.2256 36.6179 30.4189 35.3383 30.5023 33.6321C30.5301 32.9738 30.595 32.7141 30.8269 32.2041C31.2998 31.212 32.1436 30.4794 33.2192 30.1363C33.7292 29.9787 34.9347 29.9787 35.4261 30.1456ZM45.3016 32.167C49.6412 34.1885 50.0492 34.411 50.0492 34.8283C50.0492 34.9489 49.7895 35.839 49.7246 35.9225C49.7061 35.941 39.5617 31.2305 39.5061 31.1749C39.4968 31.1656 39.6174 30.9523 39.7843 30.702C40.1088 30.2012 40.4427 29.9787 40.7301 30.0621C40.8321 30.0992 42.8907 31.0358 45.3016 32.167ZM35.2778 33.4096C35.7043 33.6043 36.0474 33.799 36.0474 33.8454C36.0474 33.9103 35.4632 34.9396 35.3334 35.0972C35.2778 35.1714 34.0723 34.6058 33.8127 34.3832C33.4603 34.0958 33.4418 33.6229 33.7756 33.2983C34.0816 32.983 34.3876 33.0016 35.2778 33.4096ZM59.6928 42.3021C59.6928 43.5539 59.665 44.5647 59.6186 44.5461C59.5815 44.5276 59.0437 44.2494 58.4132 43.9248L57.2726 43.3314L57.3004 42.265L57.3283 41.2079L58.441 40.6145C59.053 40.2899 59.5815 40.021 59.6279 40.021C59.665 40.021 59.6928 41.0503 59.6928 42.3021ZM52.831 41.3192C53.9345 41.3748 55.0472 41.4119 55.3161 41.4119H55.7983V42.2372V43.0625L55.1306 43.1181C53.9345 43.2108 48.9272 43.387 48.8808 43.3314C48.853 43.3036 48.9828 42.8028 49.1776 42.2187L49.5299 41.1523L50.179 41.1894C50.5406 41.2079 51.7368 41.2728 52.831 41.3192Z" fill="white"/>
<path d="M62.9846 40.9948C62.456 41.5141 62.8177 42.1724 63.6893 42.293C63.9675 42.3301 64.5331 42.4599 64.9596 42.5804C65.3769 42.701 65.7942 42.803 65.8869 42.803C66.3784 42.803 66.7122 42.089 66.4247 41.6439C66.2671 41.4028 65.5995 41.1617 64.3847 40.9113C63.4482 40.7166 63.2442 40.7259 62.9846 40.9948Z" fill="white"/>
<path d="M68.3629 43.1274C67.9735 43.5076 68.0476 43.8693 68.6226 44.37C70.6347 46.1318 71.5527 47.8102 71.9236 50.4436C72.0349 51.2132 72.2018 51.4265 72.6933 51.4265C73.4165 51.4265 73.5649 50.9258 73.2775 49.4143C72.786 46.8458 71.4044 44.5554 69.4849 43.1553C69.0398 42.8307 68.6596 42.8214 68.3629 43.1274Z" fill="white"/>
<path d="M63.1515 43.9157C62.9197 44.0084 62.7528 44.2773 62.7528 44.5648C62.7528 44.6668 62.9012 45.047 63.0774 45.4086C63.7264 46.6882 64.2364 48.6633 64.2364 49.9337C64.2457 50.6199 64.3755 51.1577 64.5703 51.306C64.8299 51.4915 65.3863 51.4544 65.581 51.2411C65.7201 51.0835 65.7479 50.9073 65.7293 50.1469C65.6923 48.1533 65.0803 45.7795 64.2179 44.3237C63.9583 43.8786 63.5966 43.7395 63.1515 43.9157Z" fill="white"/>
<path d="M36.4645 53.2255C35.7134 53.55 35.12 54.4309 35.12 55.2098C35.12 55.5622 35.1014 55.6085 34.9438 55.5529C34.2391 55.3304 32.3845 55.3582 31.652 55.5993C31.2347 55.7291 30.7989 56.2298 30.6505 56.7305C30.4744 57.3518 30.5022 59.2434 30.7062 59.9018C31.2904 61.8305 32.6998 63.2863 34.5636 63.8613L35.0736 64.0189V65.5582V67.1067L34.2391 67.3849C32.366 68.0154 30.7896 69.2302 29.6676 70.9271C29.0278 71.9007 29 71.9842 29 73.2452C29 74.5249 29.1205 74.8958 29.6584 75.4151C30.2425 75.9714 30.4187 75.9992 32.9687 75.9992C35.1756 75.9992 35.2869 75.99 35.4445 75.8138C35.6671 75.5634 35.6671 75.0441 35.4538 74.8031C35.2962 74.6361 35.1478 74.6176 33.1264 74.5898C30.9844 74.562 30.9565 74.562 30.7247 74.3394C30.5022 74.1262 30.4836 74.052 30.4836 73.2731C30.4836 72.4292 30.4836 72.4292 30.8916 71.8265C31.958 70.2409 33.2747 69.2487 35.0736 68.6738C36.0565 68.3585 38.1151 68.3029 39.2185 68.5718C41.0545 69.0076 42.5382 69.9905 43.6602 71.5205C44.1423 72.1696 44.6709 72.4292 45.3014 72.3365C45.7651 72.2716 45.7929 72.2438 47.1096 70.7787C48.5376 69.1838 50.4014 68.3956 52.7381 68.3956C55.0749 68.3956 56.9387 69.1838 58.3667 70.7787C59.6834 72.2438 59.7112 72.2716 60.1749 72.3365C60.8054 72.4292 61.3339 72.1696 61.8161 71.5205C62.9381 69.9998 64.4403 69.0076 66.2578 68.5718C67.3612 68.3029 69.4197 68.3585 70.4027 68.6738C72.2016 69.2487 73.5368 70.2502 74.5846 71.8265C74.9834 72.42 74.9926 72.4478 75.0019 73.2545C75.0112 74.0242 75.0019 74.0891 74.7701 74.3209L74.529 74.562L56.1134 74.6083C38.0223 74.6547 37.6978 74.6547 37.568 74.8309C37.3733 75.0998 37.4011 75.5912 37.6236 75.8138C37.8091 75.9992 37.9296 75.9992 56.3081 75.9992C76.7452 75.9992 75.1503 76.0456 75.8179 75.4151C76.3557 74.8958 76.4763 74.5249 76.4763 73.2452C76.4763 71.9842 76.4485 71.9007 75.8086 70.9271C74.6774 69.2302 73.1103 68.0154 71.2372 67.3849L70.4027 67.1067V65.5674V64.0282L71.1537 63.7778C72.9156 63.1658 74.2045 61.7934 74.7701 59.9018C74.9741 59.2342 75.0019 57.3518 74.8165 56.712C74.5383 55.7569 73.8243 55.4138 72.1088 55.4045C71.3207 55.3953 71.0332 55.4324 70.5232 55.5715C70.3841 55.6085 70.3563 55.5436 70.3563 55.2098C70.3563 54.4216 69.7536 53.5407 68.9932 53.2162C68.8263 53.1513 68.4276 53.0956 68.103 53.0956C67.0459 53.0956 66.2299 53.6798 65.9425 54.6535C65.8683 54.8853 65.8127 55.1913 65.8127 55.3396C65.8127 55.5807 65.7848 55.5993 65.6087 55.5436C65.1914 55.4138 64.2363 55.3582 63.411 55.4231C61.9181 55.5436 61.4545 55.9887 61.2783 57.4538C61.0929 58.956 61.4174 60.3933 62.2149 61.5802C62.9474 62.6929 63.9952 63.4718 65.2563 63.8613L65.7663 64.0189V65.5674V67.116L65.1172 67.32C63.309 67.8949 61.8161 69.0076 60.453 70.8065C60.4345 70.8343 60.3325 70.7231 60.2212 70.5747C59.8225 70.0091 58.719 68.9427 58.0792 68.5069C57.2354 67.9227 56.7532 67.6816 55.8445 67.3663L55.1027 67.116L55.0749 65.5396L55.0563 63.9633L55.3994 63.8983C55.928 63.8056 56.985 63.2585 57.5414 62.8042C58.4965 62.016 59.1919 60.8662 59.4701 59.6051C59.637 58.8447 59.6092 57.2313 59.4238 56.6007C59.2754 56.1185 58.8396 55.7198 58.2739 55.5529C57.7361 55.3953 55.9743 55.3582 55.4087 55.4973L55.0656 55.5807L55.0007 55.1449C54.8152 53.8467 53.99 53.0956 52.7381 53.0956C51.4863 53.0956 50.6611 53.8467 50.4756 55.1449L50.4107 55.5807L50.0676 55.4973C49.502 55.3582 47.7401 55.3953 47.2023 55.5529C46.6182 55.7291 46.2009 56.1185 46.0432 56.6471C45.9691 56.8696 45.9227 57.5373 45.9227 58.242C45.9227 59.2342 45.9598 59.568 46.1267 60.0965C46.6831 61.8584 48.0832 63.2863 49.7431 63.7871L50.42 63.9911L50.4014 65.5582L50.3736 67.116L49.6318 67.3663C48.7231 67.6816 48.2409 67.9227 47.3971 68.5069C46.7572 68.9427 45.6538 70.0091 45.2551 70.5747C45.1438 70.7231 45.0418 70.8343 45.0232 70.8065C43.6602 69.0076 42.1673 67.8949 40.3591 67.32L39.71 67.116V65.5674V64.0189L40.22 63.8613C41.4811 63.4718 42.5289 62.6929 43.2614 61.5802C44.0589 60.4025 44.3834 58.956 44.2072 57.4816C44.1516 57.0644 44.0867 56.6378 44.0496 56.5544C43.9198 56.202 43.6231 55.8682 43.2614 55.6827C42.6587 55.3767 40.6651 55.2933 39.8769 55.5436C39.6822 55.6085 39.6636 55.5807 39.6636 55.2933C39.6636 54.4958 39.1629 53.6891 38.4303 53.3275C37.8925 53.0585 36.956 53.0122 36.4645 53.2255ZM37.8833 54.7647C38.1336 54.9965 38.1985 55.2562 38.1614 55.8218C38.1336 56.2298 38.0965 56.2947 37.7442 56.5451L37.3547 56.8325L36.9838 56.5265C36.6129 56.2391 36.6036 56.2205 36.6036 55.6364C36.6036 55.1171 36.6407 55.0058 36.8354 54.8111C37.1136 54.5236 37.5958 54.5051 37.8833 54.7647ZM53.2852 54.8018C53.4429 54.978 53.5078 55.1727 53.5449 55.6178L53.5912 56.202L53.1647 56.508L52.7381 56.814L52.3116 56.508L51.8851 56.202L51.9314 55.6178C51.9685 55.1727 52.0334 54.978 52.1911 54.8018C52.4785 54.4958 52.9978 54.4958 53.2852 54.8018ZM68.6408 54.8111C68.8356 55.0058 68.8727 55.1171 68.8727 55.6364C68.8727 56.2205 68.8634 56.2391 68.4925 56.5265L68.1216 56.8325L67.7321 56.5451C67.3798 56.2947 67.3427 56.2298 67.3148 55.8218C67.2963 55.5807 67.3056 55.284 67.3334 55.1635C67.4818 54.5885 68.2236 54.3845 68.6408 54.8111ZM34.6564 57.0551C35.3889 57.2591 35.834 57.5094 36.3996 58.038C37.3269 58.9189 37.7349 59.8925 37.7349 61.2556C37.7442 62.4333 37.6978 62.526 36.9096 62.6094C34.0629 62.9062 31.7911 60.7178 32.0044 57.8804C32.0322 57.4724 32.0971 57.1015 32.1434 57.0551C32.3938 56.8047 33.7476 56.8047 34.6564 57.0551ZM42.3712 56.9531C42.5752 56.9994 42.6309 57.0644 42.6772 57.3425C42.7051 57.528 42.7514 57.8062 42.77 57.9453C42.8534 58.4553 42.6309 59.5309 42.3063 60.2171C41.7778 61.3391 40.5538 62.322 39.4689 62.5074L39.1351 62.5724L39.2185 61.9789C39.3576 60.8754 39.1258 59.5309 38.6343 58.548L38.3562 58.0009L38.5694 57.8154C38.9682 57.4816 40.0809 56.9902 40.6373 56.9067C41.1565 56.8233 41.7963 56.8418 42.3712 56.9531ZM50.1881 57.1015C51.6254 57.5651 52.6825 58.7427 53.0163 60.2449C53.1461 60.8291 53.109 62.3127 52.9514 62.4704C52.905 62.5167 52.5063 62.5816 52.0798 62.6187C49.8636 62.7671 47.8978 61.3298 47.4434 59.2156C47.3136 58.6314 47.3692 57.222 47.5269 57.0644C47.8143 56.7769 49.2701 56.8047 50.1881 57.1015ZM57.8474 56.9994C58.0329 57.0922 58.1163 57.4816 58.1163 58.2791C58.107 59.4753 57.6805 60.5324 56.883 61.3391C56.4009 61.8213 55.3809 62.4054 54.8245 62.5167L54.5463 62.5724L54.5741 61.5153C54.6112 60.3098 54.4629 59.5124 54.0363 58.6129C53.8787 58.2884 53.7581 58.0102 53.7581 57.9824C53.7581 57.8711 54.5834 57.3611 55.0563 57.1756C55.316 57.0736 55.7518 56.9531 56.0114 56.9067C56.5307 56.814 57.6063 56.8696 57.8474 56.9994ZM65.3027 57.0087C66.8419 57.3982 68.0752 58.7427 68.409 60.3747C68.5481 61.0238 68.4647 62.2571 68.2885 62.4425C68.2143 62.5074 67.8619 62.5909 67.5003 62.6187C65.1265 62.8134 63.0865 61.2093 62.7619 58.8911C62.6785 58.2976 62.7527 57.1478 62.8825 57.018C62.901 56.9902 63.1514 56.9345 63.4203 56.8974C63.9581 56.814 64.7278 56.8604 65.3027 57.0087ZM73.203 56.9994C73.3699 57.0644 73.407 57.1756 73.4719 57.7042C73.6203 59.1044 73.101 60.5694 72.1367 61.4504C71.6081 61.9325 70.755 62.4054 70.1987 62.5167L69.8927 62.5724L69.9483 61.71C70.0225 60.6344 69.837 59.5402 69.429 58.6778C69.2807 58.3533 69.1508 58.0473 69.1508 58.0009C69.1508 57.8525 69.8927 57.3704 70.4212 57.1756C71.3485 56.8325 72.5539 56.7491 73.203 56.9994ZM38.0223 64.1302C38.1614 64.1302 38.18 64.26 38.18 65.5211V66.912H37.3918H36.6036V65.5303V64.1394L36.9096 64.1023C37.0673 64.0745 37.3547 64.0745 37.5309 64.0931C37.7071 64.1116 37.9296 64.1302 38.0223 64.1302ZM53.1461 64.0931L53.5727 64.158V65.5303V66.912H52.7381H51.9036V65.5303V64.1394L52.2096 64.1023C52.3672 64.0838 52.5527 64.056 52.6083 64.056C52.664 64.0467 52.905 64.0653 53.1461 64.0931ZM68.715 64.1302C68.8541 64.1302 68.8727 64.26 68.8727 65.5211V66.912H68.0845H67.2963V65.5303V64.1394L67.6023 64.1023C67.7599 64.0745 68.0474 64.0745 68.2236 64.0931C68.3998 64.1116 68.6223 64.1302 68.715 64.1302Z" fill="white"/>
</svg>
